# AST/ASF file generated using VICON BodyLanguage
# -----------------------------------------------
:version 1.10
:name VICON
:units
  mass 1.0
  length 0.45
  angle deg
:documentation
   .ast/.asf automatically generated from VICON data using
   VICON BodyBuilder and BodyLanguage model FoxedUp or BRILLIANT.MOD
:root
   order TX TY TZ RX RY RZ
   axis XYZ
   position 0 0 0  
   orientation 0 0 0 
:bonedata
  begin
     id 1 
     name lhipjoint
     direction 0.440178 -0.822639 0.359871 
     length 2.53113 
     axis 0 0 0  XYZ
  end
  begin
     id 2 
     name lfemur
     direction 0.34202 -0.939693 0  
     length 7.88132  
     axis 0 0 20  XYZ
    dof rx ry rz
    limits (-160.0 20.0)
           (-70.0 70.0)
           (-60.0 70.0)
  end
  begin
     id 3 
     name ltibia
     direction 0.34202 -0.939693 0   
     length 8.43783   
     axis 0 0 20   XYZ
    dof rx
    limits (-10.0 170.0)
  end
  begin
     id 4 
     name lfoot
     direction 0.0886351 -0.243523 0.965837   
     length 2.63414   
     axis -90 7.62852e-016 20   XYZ
    dof rx rz
    limits (-45.0 90.0)
           (-70.0 20.0)
  end
  begin
     id 5 
     name ltoes
     direction 1.53703e-011 -4.21717e-011 1   
     length 1.31427   
     axis -90 7.62852e-016 20   XYZ
    dof rx
    limits (-90.0 20.0)
  end
  begin
     id 6 
     name rhipjoint
     direction -0.399779 -0.839773 0.367367   
     length 2.47948  
     axis 0 0 0  XYZ 
  end
  begin
     id 7 
     name rfemur
     direction -0.34202 -0.939693 0   
     length 7.74806   
     axis 0 0 -20   XYZ
    dof rx ry rz
    limits (-160.0 20.0)
           (-70.0 70.0)
           (-70.0 60.0)
  end
  begin
     id 8 
     name rtibia
     direction -0.34202 -0.939693 0   
     length 8.74432   
     axis 0 0 -20   XYZ
    dof rx
    limits (-10.0 170.0)
 end
 begin
     id 9 
     name rfoot
     direction -0.108514 -0.298139 0.948334   
     length 2.66102  
     axis -90 -7.62852e-016 -20   XYZ
    dof rx rz
    limits (-45.0 90.0)
           (-20.0 70.0)
  end
  begin
     id 10 
     name rtoes
     direction -1.53392e-011 -4.22077e-011 1   
     length 1.31983   
     axis -90 -7.62852e-016 -20   XYZ
    dof rx
    limits (-90.0 20.0)
  end
  begin
     id 11 
     name lowerback
     direction 0.0113257 0.999866 0.0118602   
     length 2.58694   
     axis 0 0 0   XYZ
    dof rx ry rz
    limits (-20.0 45.0)
           (-30.0 30.0)
           (-30.0 30.0)
  end
  begin
     id 12 
     name upperback
     direction -0.0164747 0.995193 -0.0965375   
     length 2.52368   
     axis 0 0 0   XYZ
    dof rx ry rz
    limits (-20.0 45.0)
           (-30.0 30.0)
           (-30.0 30.0)
  end
  begin
     id 13 
     name thorax
     direction -0.0194301 0.99433 -0.104552   
     length 2.56099   
     axis 0 0 0   XYZ
    dof rx ry rz
    limits (-20.0 45.0)
           (-30.0 30.0)
           (-30.0 30.0)
  end
  begin
     id 14 
     name lowerneck
     direction 0.0148543 0.995587 -0.092657   
     length 1.71582   
     axis 0 0 0   XYZ
    dof rx ry rz
    limits (-20.0 45.0)
           (-30.0 30.0)
           (-30.0 30.0)
  end
  begin
     id 15 
     name upperneck
     direction -0.0135467 0.993656 -0.111639   
     length 1.68937   
     axis 0 0 0   XYZ
    dof rx ry rz
    limits (-20.0 45.0)
           (-30.0 30.0)
           (-30.0 30.0)
  end
  begin
     id 16
     name head
     direction -0.00615349 0.999547 -0.029448  
     length 1.7462  
     axis 0 0 0   XYZ
    dof rx ry rz
    limits (-20.0 45.0)
           (-30.0 30.0)
           (-30.0 30.0)
  end
  begin
     id 17 
     name lclavicle
     direction 0.988267 0.149885 0.0293713  
     length 4.47222  
     axis 0 0 0   XYZ
    dof ry rz
    limits (-20.0 10.0)
           (0.0 20.0)
  end
  begin
     id 18 
     name lhumerus
     direction 1 -4.48986e-011 -1.14833e-027   
     length 5.37148   
     axis 180 -30 -90   XYZ
    dof rx ry rz
    limits (-60.0 90.0)
           (-90.0 90.0)
           (-90.0 90.0)
  end
  begin
     id 19
     name lradius
     direction 0.999998 0.00170963 -0.000987055   
     length 3.94212   
     axis 180 -30 -90   XYZ
    dof rx
    limits (-10.0 170.0)
  end
  begin
     id 20
     name lwrist
     direction 0.999998 7.53149e-005 -0.00194706   
     length 1.97106   
     axis 4.65056e-015 90 90   XYZ
    dof ry
    limits (-180.0 0.0)
 end
  begin
     id 21 
     name lhand
     direction 1 -4.48973e-011 -1.31746e-026   
     length 1.17917   
     axis 8.4065e-015 90 90   XYZ
    dof rx rz
    limits (-90.0 90.0)
           (-45.0 45.0)
  end
  begin
     id 22 
     name lfingers
     direction 1 -4.49107e-011 -2.63492e-026   
     length 0.950679   
     axis 1.6813e-014 90 90   XYZ
    dof rx
    limits (0.0 90.0)
  end
  begin
     id 23
     name lthumb
     direction 0.707107 -6.35048e-011 0.707107   
     length 1.36499   
     axis -90 45 2.85299e-015   XYZ
    dof rx rz
    limits (-45.0 45.0)
           (-45.0 45.0)
  end
  begin
     id 24 
     name rclavicle
     direction -0.996699 0.0642895 -0.0495725   
     length 4.62611  
     axis 0 0 0   XYZ 
    dof ry rz
    limits (-10.0 20.0)
           (-20.0 0.0)
  end
  begin
     id 25 
     name rhumerus
     direction -1 -4.48919e-011 -2.41059e-027  
     length 5.4981   
     axis 180 30 90   XYZ
    dof rx ry rz
    limits (-90.0 60.0)
           (-90.0 90.0)
           (-90.0 90.0)
  end
  begin
     id 26 
     name rradius
     direction -0.999999 0.00118101 -0.000681858   
     length 3.48381   
     axis 180 30 90   XYZ
    dof rx
    limits (-10.0 170.0)
  end
  begin
     id 27 
     name rwrist
     direction -0.999999 0.000321823 -0.00132288   
     length 1.7419   
     axis 4.65056e-015 -90 -90   XYZ
    dof ry
    limits (-180.0 0.0)
  end
  begin
     id 28
     name rhand
     direction -1 -4.49022e-011 -1.31746e-026   
     length 1.34932   
     axis 8.4065e-015 -90 -90   XYZ
    dof rx rz
    limits (-90.0 90.0)
           (-45.0 45.0)
  end
  begin
     id 29
     name rfingers
     direction -1 -4.49178e-011 -2.63492e-026   
     length 1.08785   
     axis 1.6813e-014 -90 -90   XYZ
    dof rx
    limits (0.0 90.0)
  end
  begin
     id 30
     name rthumb
     direction -0.707107 -6.34713e-011 0.707107   
     length 1.56195   
     axis -90 -45 -2.85299e-015   XYZ
    dof rx rz
    limits (-45.0 45.0)
           (-45.0 45.0)
  end
:hierarchy
  begin
    root lhipjoint rhipjoint lowerback
    lhipjoint lfemur
    lfemur ltibia
    ltibia lfoot
    lfoot ltoes
    rhipjoint rfemur
    rfemur rtibia
    rtibia rfoot
    rfoot rtoes
    lowerback upperback
    upperback thorax
    thorax lowerneck lclavicle rclavicle
    lowerneck upperneck
    upperneck head
    lclavicle lhumerus
    lhumerus lradius
    lradius lwrist
    lwrist lhand lthumb
    lhand lfingers
    rclavicle rhumerus
    rhumerus rradius
    rradius rwrist
    rwrist rhand rthumb
    rhand rfingers
  end

#!OML:ASF X:\für Bonn\!DataBase\2005_08_10_Bjorn_Final\c3d\bjorn.ASF
:FULLY-SPECIFIED
:DEGREES
24
root 1.83101 19.0498 13.7033 -365.413 -150.629 -720.304
lowerback 19.5506 5.37886 -5.44437
upperback 19.2153 2.30093 -3.3434
thorax 10.3715 -0.926527 -1.23887
lowerneck -2.03988 1.33686 -5.10176
upperneck 18.2427 1.13013 1.68362
head 5.79571 0.0336084 1.41504
rclavicle 5.64548e-014 5.56597e-015
rhumerus -199.806 -162.137 92.2559
rradius 37.8381
rwrist 9.50469
rhand -18.6205 6.40044
rfingers 7.12502
rthumb 7.67143 -23.4404
lclavicle 5.64548e-014 5.56597e-015
lhumerus -4.98181 14.4809 74.7902
lradius 13.1255
lwrist -38.0234
lhand -23.8851 -363.672
lfingers 7.12502
lthumb 2.5883 26.2922
rfemur -8.28477 9.29136 13.6963
rtibia 55.1327
rfoot -3.18214 13.2111
rtoes 13.5502
lfemur 173.145 183.763 169.739
ltibia 21.2028
lfoot -4.07502 -12.1755
ltoes -16.482
25
root 1.77671 19.0722 13.7562 -365.291 -151.407 -720.196
lowerback 19.7816 5.45438 -5.32889
upperback 19.2984 2.31698 -3.32347
thorax 10.3587 -0.935333 -1.29443
lowerneck -1.90547 1.24629 -5.49162
upperneck 17.9974 1.00279 1.91848
head 5.69643 -0.0298603 1.54521
rclavicle -1.03368e-014 8.0309e-014
rhumerus -199.795 -162.068 92.5633
rradius 37.3151
rwrist 9.75519
rhand -18.5408 6.35302
rfingers 7.12502
rthumb 7.74839 -23.485
lclavicle -1.03368e-014 8.0309e-014
lhumerus -4.14262 13.6867 75.0212
lradius 13.302
lwrist -37.9633
lhand -23.8704 -363.694
lfingers 7.12502
lthumb 2.6025 26.2695
rfemur -9.05288 8.29519 13.5129
rtibia 55.804
rfoot -3.11867 12.9726
rtoes 12.6673
lfemur 173.174 183.403 169.68
ltibia 21.053
lfoot -4.04726 -11.7034
ltoes -16.3912
26
root 1.72314 19.0926 13.8103 -365.205 -152.158 -720.049
lowerback 20.0348 5.5098 -5.15748
upperback 19.3819 2.31197 -3.27606
thorax 10.3364 -0.94975 -1.34796
lowerneck -1.73247 1.1666 -5.86046
upperneck 17.7593 0.892452 2.08937
head 5.59391 -0.089327 1.65235
rclavicle -4.85035e-014 1.08139e-013
rhumerus -199.812 -162.086 92.9092
rradius 36.8237
rwrist 9.96583
rhand -18.3703 6.31211
rfingers 7.12502
rthumb 7.91291 -23.5198
lclavicle -4.85035e-014 1.08139e-013
lhumerus -3.39793 12.7121 75.2633
lradius 13.5988
lwrist -37.4785
lhand -23.8812 -363.747
lfingers 7.12502
lthumb 2.59211 26.2167
rfemur -9.78507 7.33347 13.3815
rtibia 56.356
rfoot -3.04111 13.0983
rtoes 11.9617
lfemur 173.18 183.205 169.655
ltibia 20.97
lfoot -4.01848 -11.1348
ltoes -15.8984
27
root 1.66952 19.1084 13.8649 -365.18 -152.921 -719.851
lowerback 20.3144 5.56278 -4.92093
upperback 19.4839 2.30287 -3.1904
thorax 10.3255 -0.964607 -1.39607
lowerneck -1.56062 1.07299 -6.30126
upperneck 17.4853 0.768122 2.27716
head 5.48163 -0.157133 1.77596
rclavicle -4.37326e-014 -5.725e-014
rhumerus -199.771 -162.172 93.2755
rradius 36.3165
rwrist 10.1909
rhand -18.1794 6.25749
rfingers 7.12502
rthumb 8.09719 -23.5674
lclavicle -4.37326e-014 -5.725e-014
lhumerus -2.72923 11.3034 75.5347
lradius 14.0208
lwrist -36.3981
lhand -23.9079 -363.621
lfingers 7.12502
lthumb 2.56635 26.3431
rfemur -10.4386 6.40913 13.3257
rtibia 56.7889
rfoot -2.90489 13.433
rtoes 11.2595
lfemur 173.166 182.989 169.678
ltibia 20.9916
lfoot -4.05706 -10.5753
ltoes -15.5168
28
root 1.61605 19.1206 13.9207 -365.158 -153.668 -719.654
lowerback 20.5887 5.60882 -4.66369
upperback 19.6 2.28447 -3.08482
thorax 10.3363 -0.985215 -1.43328
lowerneck -1.36715 0.977933 -6.74973
upperneck 17.176 0.643087 2.4538
head 5.35604 -0.225051 1.89704
rclavicle -3.18055e-015 -2.38542e-015
rhumerus -199.686 -162.376 93.6615
rradius 35.8226
rwrist 10.3638
rhand -17.8513 6.27471
rfingers 7.12502
rthumb 8.41388 -23.5377
lclavicle -3.18055e-015 -2.38542e-015
lhumerus -2.09559 9.57414 75.7914
lradius 14.5368
lwrist -34.681
lhand -23.9418 -363.464
lfingers 7.12502
lthumb 2.53361 26.5005
rfemur -11.0555 5.52161 13.2753
rtibia 57.1134
rfoot -2.5774 13.8598
rtoes 11.2155
lfemur 173.101 182.693 169.709
ltibia 21.1016
lfoot -4.11027 -10.1055
ltoes -15.1575
